<?xml version="1.0" encoding="UTF-8" standalone="no"?>
<!-- Created with Inkscape (http://www.inkscape.org/) -->

<svg
   width="147.91591mm"
   height="147.91591mm"
   viewBox="0 0 147.91591 147.91591"
   version="1.1"
   id="svg3765"
   sodipodi:docname="favicon-dark.svg"
   inkscape:version="1.2.2 (b0a8486541, 2022-12-01)"
   xmlns:inkscape="http://www.inkscape.org/namespaces/inkscape"
   xmlns:sodipodi="http://sodipodi.sourceforge.net/DTD/sodipodi-0.dtd"
   xmlns="http://www.w3.org/2000/svg"
   xmlns:svg="http://www.w3.org/2000/svg">
  <sodipodi:namedview
     id="namedview6"
     pagecolor="#ffffff"
     bordercolor="#000000"
     borderopacity="0.25"
     inkscape:showpageshadow="2"
     inkscape:pageopacity="0.0"
     inkscape:pagecheckerboard="0"
     inkscape:deskcolor="#d1d1d1"
     inkscape:document-units="mm"
     showgrid="false"
     inkscape:zoom="0.66493674"
     inkscape:cx="266.94269"
     inkscape:cy="185.73195"
     inkscape:window-width="1600"
     inkscape:window-height="785"
     inkscape:window-x="0"
     inkscape:window-y="0"
     inkscape:window-maximized="1"
     inkscape:current-layer="svg3765" />
  <defs
     id="defs3762" />
  <path
     id="path1115-36"
     style="fill:#f2f2f2;stroke:none;stroke-width:0.127113;stroke-linecap:round;stroke-opacity:0.989796"
     d="m 56.467681,21.572604 c -21.002909,5.1e-5 -38.029135,17.026721 -38.02888,38.029781 2.41e-4,21.002805 17.026213,38.028801 38.02888,38.028879 C 77.470588,97.631186 94.497012,80.60519 94.497012,59.602385 94.497253,38.599325 77.470831,21.572655 56.467681,21.572604 Z M 96.05649,34.993028 c 4.44934,7.142593 7.02294,15.574688 7.02283,24.609357 0,25.742752 -20.868761,46.611085 -46.611639,46.611195 -4.597906,-4e-5 -9.038861,-0.66906 -13.234654,-1.90943 8.227297,13.23004 22.893449,22.0391 39.619398,22.03916 25.750005,-2e-4 46.624685,-20.87465 46.624685,-46.624685 2.1e-4,-21.163546 -14.10188,-39.030699 -33.42062,-44.725597 z" />
</svg>
